<svg width="56" height="10" viewBox="0 0 56 10" fill="none" xmlns="http://www.w3.org/2000/svg">
<path d="M4.308 9.12C3.516 9.12 2.852 8.968 2.316 8.664C1.788 8.352 1.388 7.892 1.116 7.284C0.852 6.676 0.72 5.916 0.72 5.004C0.72 3.644 1.02 2.62 1.62 1.932C2.228 1.236 3.124 0.887999 4.308 0.887999C5.108 0.887999 5.772 1.044 6.3 1.356C6.836 1.66 7.236 2.116 7.5 2.724C7.772 3.332 7.908 4.092 7.908 5.004C7.908 6.364 7.604 7.392 6.996 8.088C6.396 8.776 5.5 9.12 4.308 9.12ZM4.308 8.304C4.94 8.304 5.456 8.188 5.856 7.956C6.256 7.724 6.548 7.364 6.732 6.876C6.924 6.388 7.02 5.764 7.02 5.004C7.02 4.244 6.924 3.624 6.732 3.144C6.548 2.656 6.256 2.296 5.856 2.064C5.456 1.824 4.94 1.704 4.308 1.704C3.684 1.704 3.172 1.824 2.772 2.064C2.372 2.296 2.076 2.656 1.884 3.144C1.7 3.624 1.608 4.244 1.608 5.004C1.608 5.764 1.7 6.388 1.884 6.876C2.076 7.364 2.372 7.724 2.772 7.956C3.172 8.188 3.684 8.304 4.308 8.304ZM12.777 9.12C11.785 9.12 11.013 8.828 10.461 8.244C9.917 7.66 9.645 6.824 9.645 5.736V0.995999H10.509V5.784C10.509 6.64 10.701 7.276 11.085 7.692C11.469 8.1 12.033 8.304 12.777 8.304C13.521 8.304 14.089 8.1 14.481 7.692C14.873 7.276 15.069 6.64 15.069 5.784V0.995999H15.909V5.736C15.909 6.464 15.785 7.08 15.537 7.584C15.289 8.088 14.933 8.472 14.469 8.736C14.005 8.992 13.441 9.12 12.777 9.12ZM20.0056 9V1.812H17.1736V0.995999H23.6896V1.812H20.8696V9H20.0056ZM27.2177 9.12C26.8177 9.12 26.4777 9.092 26.1977 9.036C25.9177 8.98 25.6657 8.9 25.4417 8.796C25.2177 8.692 24.9737 8.572 24.7097 8.436V7.5C24.9657 7.716 25.3097 7.908 25.7417 8.076C26.1737 8.244 26.6777 8.328 27.2537 8.328C27.8617 8.328 28.3017 8.2 28.5737 7.944C28.8537 7.68 28.9937 7.348 28.9937 6.948C28.9937 6.612 28.9017 6.344 28.7177 6.144C28.5337 5.936 28.2977 5.768 28.0097 5.64C27.7217 5.504 27.4177 5.376 27.0977 5.256C26.8257 5.16 26.5537 5.06 26.2817 4.956C26.0177 4.844 25.7777 4.708 25.5617 4.548C25.3457 4.38 25.1737 4.168 25.0457 3.912C24.9177 3.648 24.8537 3.32 24.8537 2.928C24.8537 2.712 24.8937 2.484 24.9737 2.244C25.0617 2.004 25.1977 1.78 25.3817 1.572C25.5737 1.364 25.8257 1.196 26.1377 1.068C26.4577 0.94 26.8457 0.875999 27.3017 0.875999C27.6137 0.875999 27.8777 0.9 28.0937 0.948C28.3177 0.988 28.5297 1.052 28.7297 1.14C28.9297 1.22 29.1537 1.32 29.4017 1.44V2.328C29.1937 2.208 28.9937 2.1 28.8017 2.004C28.6177 1.9 28.4097 1.82 28.1777 1.764C27.9537 1.7 27.6777 1.668 27.3497 1.668C26.9577 1.668 26.6417 1.724 26.4017 1.836C26.1697 1.948 25.9977 2.096 25.8857 2.28C25.7817 2.464 25.7297 2.66 25.7297 2.868C25.7297 3.196 25.8017 3.456 25.9457 3.648C26.0977 3.84 26.3057 4 26.5697 4.128C26.8417 4.248 27.1537 4.368 27.5057 4.488C27.7857 4.584 28.0657 4.692 28.3457 4.812C28.6257 4.924 28.8777 5.068 29.1017 5.244C29.3337 5.412 29.5177 5.628 29.6537 5.892C29.7977 6.148 29.8697 6.468 29.8697 6.852C29.8697 7.212 29.7897 7.568 29.6297 7.92C29.4697 8.264 29.1977 8.552 28.8137 8.784C28.4297 9.008 27.8977 9.12 27.2177 9.12ZM31.6059 9V0.995999H32.4699V9H31.6059ZM34.5122 9V0.995999H37.0202C38.2682 0.995999 39.2042 1.332 39.8282 2.004C40.4602 2.668 40.7762 3.664 40.7762 4.992C40.7762 6.32 40.4602 7.32 39.8282 7.992C39.2042 8.664 38.2682 9 37.0202 9H34.5122ZM35.3762 8.184H36.9602C37.9842 8.184 38.7282 7.928 39.1922 7.416C39.6562 6.904 39.8882 6.096 39.8882 4.992C39.8882 3.888 39.6562 3.08 39.1922 2.568C38.7282 2.056 37.9842 1.8 36.9602 1.8H35.3762V8.184ZM42.5161 9V0.995999H47.5681V1.812H43.3801V4.572H47.0641V5.412H43.3801V8.184H47.5681V9H42.5161ZM49.4888 9V0.995999H52.7768C53.5608 0.995999 54.1488 1.192 54.5408 1.584C54.9408 1.976 55.1408 2.556 55.1408 3.324C55.1408 3.788 55.0448 4.2 54.8528 4.56C54.6608 4.92 54.3928 5.204 54.0488 5.412C53.7048 5.62 53.3008 5.724 52.8368 5.724L53.1968 5.484L55.5008 9H54.4808L52.1048 5.328L52.5368 5.772H50.3528V9H49.4888ZM50.3528 4.956H52.3808C53.0448 4.956 53.5248 4.824 53.8208 4.56C54.1248 4.288 54.2768 3.896 54.2768 3.384C54.2768 2.904 54.1648 2.524 53.9408 2.244C53.7168 1.956 53.2968 1.812 52.6808 1.812H50.3528V4.956Z" fill="white"/>
</svg>
